<?xml version="1.0" encoding="utf-8"?>
<svg version="1.1" xmlns:xlink="http://www.w3.org/1999/xlink" width="20px" height="20px" xmlns="http://www.w3.org/2000/svg">
  <g transform="matrix(1 0 0 1 -485 -314 )">
    <path d="M 13.75 2.5  L 6.25 2.5  L 6.25 0  L 0 0  L 0 6.25  L 2.5 6.25  L 2.5 13.75  L 0 13.75  L 0 20  L 6.25 20  L 6.25 17.5  L 13.75 17.5  L 13.75 20  L 20 20  L 20 13.75  L 17.5 13.75  L 17.5 6.25  L 20 6.25  L 20 0  L 13.75 0  L 13.75 2.5  Z M 6.25 3.75  L 13.75 3.75  L 13.75 6.25  L 16.25 6.25  L 16.25 13.75  L 13.75 13.75  L 13.75 16.25  L 6.25 16.25  L 6.25 13.75  L 3.75 13.75  L 3.75 6.25  L 6.25 6.25  L 6.25 3.75  Z M 15 5  L 15 1.25  L 18.75 1.25  L 18.75 5  L 15 5  Z M 15 15  L 18.75 15  L 18.75 18.75  L 15 18.75  L 15 15  Z M 5 15  L 5 18.75  L 1.25 18.75  L 1.25 15  L 5 15  Z M 5 5  L 1.25 5  L 1.25 1.25  L 5 1.25  L 5 5  Z " fill-rule="nonzero" fill="#555555" stroke="none" transform="matrix(1 0 0 1 485 314 )" />
  </g>
</svg>