<svg width="24" height="24" viewBox="0 0 30 30" fill="none" xmlns="http://www.w3.org/2000/svg">
<g clip-path="url(#clip0_2323_1528)">
<path d="M15 2.5C8.1 2.5 2.5 8.1 2.5 15C2.5 21.9 8.1 27.5 15 27.5C21.9 27.5 27.5 21.9 27.5 15C27.5 8.1 21.9 2.5 15 2.5ZM13.75 24.9125C8.8125 24.3 5 20.1 5 15C5 14.225 5.1 13.4875 5.2625 12.7625L11.25 18.75V20C11.25 21.375 12.375 22.5 13.75 22.5V24.9125ZM22.375 21.7375C22.05 20.725 21.125 20 20 20H18.75V16.25C18.75 15.5625 18.1875 15 17.5 15H10V12.5H12.5C13.1875 12.5 13.75 11.9375 13.75 11.25V8.75H16.25C17.625 8.75 18.75 7.625 18.75 6.25V5.7375C22.4125 7.225 25 10.8125 25 15C25 17.6 24 19.9625 22.375 21.7375Z" fill="white"/>
</g>
<defs>
<clipPath id="clip0_2323_1528">
<rect width="30" height="30" fill="white"/>
</clipPath>
</defs>
</svg>
