<svg width="42" height="28" viewBox="0 0 42 28" fill="none" xmlns="http://www.w3.org/2000/svg">
<g clip-path="url(#clip0_2122_650)">
<path d="M0 0H42V28.0003H0V0Z" fill="white"/>
<path d="M23.625 -0.000274658H18.375V11.3747H0V16.6247H18.375V27.9996H23.625V16.6247H42V11.3747H23.625V-0.000274658Z" fill="#D80027"/>
<path d="M32.3027 18.8693L42 24.2568V18.8693H32.3027ZM25.5652 18.8693L42 27.9997V25.4178L30.2127 18.8693H25.5652ZM37.6223 27.9997L25.5652 21.3007V27.9997H37.6223Z" fill="#0052B4"/>
<path d="M25.5652 18.8693L42 27.9997V25.4178L30.2127 18.8693H25.5652Z" fill="white"/>
<path d="M25.5652 18.8693L42 27.9997V25.4178L30.2127 18.8693H25.5652Z" fill="#D80027"/>
<path d="M7.41078 18.8691L0 22.9862V18.8691H7.41078ZM16.4348 20.0302V27.9996H2.09106L16.4348 20.0302Z" fill="#0052B4"/>
<path d="M11.7873 18.8693L0 25.4178V27.9997L16.4348 18.8693H11.7873Z" fill="#D80027"/>
<path d="M9.69732 9.13014L0 3.74265V9.13014H9.69732ZM16.4348 9.13014L0 -0.000274658V2.58158L11.7873 9.13014H16.4348ZM4.37768 -0.000274658L16.4348 6.69873V-0.000274658H4.37768Z" fill="#0052B4"/>
<path d="M16.4348 9.13014L0 -0.000274658V2.58158L11.7873 9.13014H16.4348Z" fill="white"/>
<path d="M16.4348 9.13014L0 -0.000274658V2.58158L11.7873 9.13014H16.4348Z" fill="#D80027"/>
<path d="M34.5892 9.13033L42 5.01318V9.13033H34.5892ZM25.5652 7.96926V-0.000167847H39.9089L25.5652 7.96926Z" fill="#0052B4"/>
<path d="M30.2127 9.13017L42 2.58161V-0.000244141L25.5652 9.13017H30.2127Z" fill="#D80027"/>
</g>
<defs>
<clipPath id="clip0_2122_650">
<rect width="42" height="28" fill="white"/>
</clipPath>
</defs>
</svg>
