<svg width="24" height="24" viewBox="0 0 32 32" fill="none" xmlns="http://www.w3.org/2000/svg">
<path d="M15.1052 4.44721L7.12186 8.43891C6.34132 8.82918 5.95104 9.02432 5.95104 9.33333C5.95104 9.64235 6.34131 9.83749 7.12186 10.2278L7.12186 10.2278L15.1052 14.2195C15.5442 14.4389 15.7636 14.5486 15.9997 14.5486C16.2357 14.5486 16.4552 14.4389 16.8941 14.2195L24.8775 10.2278C25.658 9.83749 26.0483 9.64235 26.0483 9.33333C26.0483 9.02432 25.658 8.82918 24.8775 8.43891L16.8941 4.44721C16.4552 4.22776 16.2357 4.11803 15.9997 4.11803C15.7636 4.11803 15.5442 4.22776 15.1052 4.44721Z" fill="white"/>
<path fill-rule="evenodd" clip-rule="evenodd" d="M9.33303 14.0004C9.49149 14.0798 9.65444 14.1613 9.82188 14.245L9.82188 14.245L14.2109 16.4396C15.0887 16.8785 15.5277 17.0979 15.9998 17.0979C16.4719 17.0979 16.9108 16.8785 17.7886 16.4396L22.1777 14.245L22.1777 14.245C22.3452 14.1613 22.5081 14.0798 22.6666 14.0004L24.8776 15.1059C25.6582 15.4962 26.0484 15.6914 26.0484 16.0004C26.0484 16.3094 25.6582 16.5045 24.8776 16.8948L16.8942 20.8865C16.4553 21.1059 16.2359 21.2157 15.9998 21.2157C15.7637 21.2157 15.5443 21.1059 15.1054 20.8865L7.12199 16.8948L7.12199 16.8948L7.12198 16.8948C6.34144 16.5045 5.95117 16.3094 5.95117 16.0004C5.95117 15.6914 6.34144 15.4962 7.12199 15.1059L7.12199 15.1059L9.33303 14.0004Z" fill="white"/>
<path fill-rule="evenodd" clip-rule="evenodd" d="M9.33237 20.6671C9.49105 20.7466 9.65423 20.8282 9.82191 20.9121L9.82192 20.9121L14.211 23.1066C15.0888 23.5455 15.5277 23.7649 15.9998 23.7649C16.472 23.7649 16.9109 23.5455 17.7887 23.1066L22.1777 20.9121C22.3454 20.8282 22.5086 20.7466 22.6673 20.6671L24.8776 21.7723C25.6582 22.1626 26.0484 22.3577 26.0484 22.6667C26.0484 22.9757 25.6582 23.1709 24.8776 23.5611L16.8942 27.5528C16.4553 27.7723 16.2359 27.882 15.9998 27.882C15.7637 27.882 15.5443 27.7723 15.1054 27.5528L7.12199 23.5611L7.12199 23.5611L7.12198 23.5611C6.34144 23.1709 5.95117 22.9757 5.95117 22.6667C5.95117 22.3577 6.34144 22.1626 7.12199 21.7723L7.12199 21.7723L9.33237 20.6671Z" fill="white"/>
</svg>
