<svg width="24" height="24" viewBox="0 0 32 32" fill="none" xmlns="http://www.w3.org/2000/svg">
<path d="M24.0003 18H25.3337C26.2765 18 26.7479 18 27.0408 17.7071C27.3337 17.4142 27.3337 16.9428 27.3337 16V12.6667C27.3337 10.7811 27.3337 9.83824 26.7479 9.25246C26.1621 8.66667 25.2193 8.66667 23.3337 8.66667H8.66699C6.78137 8.66667 5.83857 8.66667 5.25278 9.25246C4.66699 9.83824 4.66699 10.7811 4.66699 12.6667V17C4.66699 17.4714 4.66699 17.7071 4.81344 17.8536C4.95989 18 5.19559 18 5.66699 18H8.00032" stroke="white"/>
<path d="M8.66699 26.6396L8.66699 14.6667C8.66699 13.7239 8.66699 13.2525 8.95989 12.9596C9.25278 12.6667 9.72418 12.6667 10.667 12.6667L21.3337 12.6667C22.2765 12.6667 22.7479 12.6667 23.0408 12.9596C23.3337 13.2525 23.3337 13.7239 23.3337 14.6667L23.3337 26.6396C23.3337 26.9562 23.3337 27.1145 23.2298 27.1893C23.126 27.2641 22.9759 27.2141 22.6755 27.114L19.5074 26.0579C19.4214 26.0293 19.3785 26.0149 19.3341 26.0162C19.2898 26.0175 19.2477 26.0344 19.1636 26.068L16.186 27.2591C16.0943 27.2957 16.0485 27.3141 16.0003 27.3141C15.9522 27.3141 15.9063 27.2957 15.8146 27.2591L12.837 26.068C12.7529 26.0344 12.7108 26.0175 12.6665 26.0162C12.6222 26.0149 12.5792 26.0293 12.4932 26.0579L9.32511 27.114C9.02479 27.2141 8.87464 27.2641 8.77081 27.1893C8.66699 27.1145 8.66699 26.9562 8.66699 26.6396Z" stroke="white"/>
<path d="M12.667 18L18.0003 18" stroke="white" stroke-linecap="round"/>
<path d="M12.667 22L19.3337 22" stroke="white" stroke-linecap="round"/>
<path d="M23.3337 8.66667V6.93334C23.3337 5.23628 23.3337 4.38775 22.8064 3.86054C22.2792 3.33334 21.4307 3.33334 19.7337 3.33334H12.267C10.5699 3.33334 9.72141 3.33334 9.1942 3.86054C8.66699 4.38775 8.66699 5.23628 8.66699 6.93334V8.66667" stroke="white"/>
</svg>
