<svg width="24" height="24" viewBox="0 0 32 32" fill="none" xmlns="http://www.w3.org/2000/svg">
<path d="M15.9997 18.6667L15.2926 19.3738L15.9997 20.0809L16.7068 19.3738L15.9997 18.6667ZM16.9997 6.66666C16.9997 6.11438 16.552 5.66666 15.9997 5.66666C15.4474 5.66666 14.9997 6.11438 14.9997 6.66666L16.9997 6.66666ZM8.6259 12.7071L15.2926 19.3738L16.7068 17.9596L10.0401 11.2929L8.6259 12.7071ZM16.7068 19.3738L23.3734 12.7071L21.9592 11.2929L15.2926 17.9596L16.7068 19.3738ZM16.9997 18.6667L16.9997 6.66666L14.9997 6.66666L14.9997 18.6667L16.9997 18.6667Z" fill="white"/>
<path d="M6.66699 21.3333L6.66699 22.6667C6.66699 24.1394 7.8609 25.3333 9.33366 25.3333L22.667 25.3333C24.1397 25.3333 25.3337 24.1394 25.3337 22.6667V21.3333" stroke="white" stroke-width="2"/>
</svg>
